<svg xmlns="http://www.w3.org/2000/svg" xmlns:xlink="http://www.w3.org/1999/xlink" width="500" zoomAndPan="magnify" viewBox="0 0 375 374.999991" height="500" preserveAspectRatio="xMidYMid meet" version="1.0"><defs><clipPath id="id1"><path d="M 98.863281 0 L 275.863281 0 L 275.863281 375 L 98.863281 375 Z M 98.863281 0 " clip-rule="nonzero"/></clipPath></defs><g clip-path="url(#id1)"><path fill="rgb(96.078491%, 96.078491%, 93.728638%)" d="M 235.078125 62.15625 L 275.902344 62.15625 L 275.902344 0.484375 L 223.71875 0.484375 L 223.71875 0.710938 C 155.167969 3.195312 141.097656 41.730469 139.851562 82.324219 L 139.722656 82.324219 L 139.722656 125.144531 L 98.894531 125.144531 L 98.894531 186.851562 L 139.722656 186.851562 L 139.722656 374.539062 L 213.007812 374.539062 L 213.007812 186.851562 L 265.53125 186.851562 L 275.902344 125.144531 L 213.007812 125.144531 L 213.007812 86.84375 C 213.007812 73.222656 222.082031 62.15625 235.078125 62.15625 Z M 235.078125 62.15625 " fill-opacity="1" fill-rule="nonzero"/></g></svg>